<?xml version='1.0' encoding='utf-8'?>
<svg xmlns="http://www.w3.org/2000/svg" viewBox="0 0 1265 790"> <g fill-rule="evenodd"> <path d="m0 186v-186h334l1 6q1 5 5 14t6 13q0 4 0 12t-6 17q-4 8-9 12t-17 10q-11 6-22 10-10 4-23 10t-25 14q-13 8-20 17-8 9-14 19t-7 10-6 7-10 11-16 13q-11 8-14 11-3 2-9 6-6 2-8 6-2 3-4 7-2 5-3 6-1 2-3 3t-4 9 0 17q0 10-2 18t-6 12-5 13-3 12-3 3-2 3-2 3-1 1q-1 1-2 2-1 0-4 3-3 4-15 10t-36 17-32 12-9 2l-1 1h-1l-1-1h-1v-185z" fill="#1b3257" stroke="#1b3257"/> <path d="m492 461 2-1h1v1h1v1h1l1 1 3 5q3 6 9 12 6 7 6 7v1h1l1 1v2h1v1h1l6 8q6 8 11 13t13 11q8 4 8 5h1v1h2l2 2h2t1 1l2 1q1 0 1 1h1v1h3l2 2h2v2h-1l-2-1-1-1h-2l-1-1q-2-1-6-2-3-1-17-11-14-8-26-21l-12-12v-1q-1 0-1 0 0-1-7-12l-7-10v-2q0-1-2-3l-1-2h1z" fill="#9cc7fb" stroke="#9cc7fb"/> <path d="m486 454 1-1 1 3q2 2 2 3v1h1v1q0 1 1 1l1 2q1 1 1 2v2l7 10q6 10 7 11 1 0 1 1v1h-1q-1 1-2 1h-2l-1-1q-1-1-2-1t-6 0-10 2-12 10-9 10q-3 2-8 7l-6 5v1h-1v1h-1v1h-1v1h-2l-1-1h-2v-4l2-2v-1h1v-1q1 0 8-11 7-12 10-19 3-8 10-15 8-6 10-13t3-7z" fill="#6fa3ed" stroke="#6fa3ed"/> <path d="m689 536h2l2 2h-1t-13 5-17 7q-5 2-10 2-4 0-16 0-12-2-26-3l-14-2v-1h-2l-4-2h-2q-1 0-2-1l-2-1h-3l-1-1-2-1h-1v-1h1l2 1h4l6 2q6 2 8 2h2v1h3l2 1h23q20 0 34-2t20-5q6-2 7-3z" fill="#79a9f1" stroke="#79a9f1"/> <path d="m568 334h1l3 6q4 7 5 7t1 1-1 1l-1-1-1 1q-1 0 0 2l1 2 1 1q1 0 0 2t-1 3v1h-2v3q0 1 0 2l-1-1-1-2v-1l-2-2q0-1-2-3t-2-5q0-4-2-5-2-2-2-4v-4h3q3 0 2-1 0-1 0-2h1q0-1 0-1z" fill="#89a2c7" stroke="#89a2c7"/> <path d="m821 266h3q1 1 1 2-1 2-1 8v5h1v1q-1 1-3 4-2 4-5 8-3 3-7 9-2 6-5 7-2 2-9 6-8 4-11 8-3 5-4 13l-1 8v4h-1v-1h-1v-2l-1-2-1-1v-2h-1q0-1-1-1 0-1-5-10l-5-10v-6h2q2 0 4 0h1l1-1q1 0 2-6 0-5-2-7-3-1-2-7 2-6 6-7 5-2 9-4t5-2l6-4q7-4 13-6t7-2 2-1l2-1h1z" fill="#8fc2fc" stroke="#8fc2fc"/> <path d="m766 444v2t-6 8-16 21-22 23q-11 10-14 12-2 3-4 4-1 0-2 4-2 4-3 6l-1 1h-1v1h1v3l-2 2v2l-1 1h-2v1h-1v1h-18q-14 0-20-1t-8 2q-2 2-5 3-3 2-18 3l-15 1v-1h-1v-1h-1v-2h-2v-1h-1v-1h-1q-2 0-5-2-3 0-3-2-1-1-2-1t-2-3q-1-2-6-6t-8-6q-2-3-6-6-4-2-5-9t0-11l1-4t1 0v-1q1 0 1-1h2v-2l2-2q1-2 4-2t4 1q2 1 2 0h1v-1h1v-1h1v-1h2v1l-2 2q-1 0 1 5 1 4 3 7t1 3-1 1 2 2q1 1 2 1l1 1 2 1 2 2v-2h1l1-1q1-1 1-1-1 0 0-2t3-3q1-1 1-3t3-2q2 1 2 0t2-2q1 0 1-1 1-1 2-1 2-1 2-2 1-2 2-2 1-1 2-7l1-6v-2l-2-2v-2h1v1h1v1l2 3q1 2 4 2 4-1 4-3t1-2 2 3q1 2 3 2 2-1 2-2 1-2 15-2 14-2 22-4t12 2q3 4 6 9 2 5 3 5t3 3 9 4 14-3q6-3 7-4 0-1 1-1t2 1 2-2 10-11 9-9 5-6q5-6 6-6z" fill="#2c4878" stroke="#2c4878"/> <path d="m600 418h2l1-1h1v2l-1 3v2q-1 0-1 3-1 3-2 3t-1-2q0-1-1-1l-1 1q-1 0-1 0v-2q0-3 0-5v-2h1q1-1 1-1h2z" fill="#3f5478" stroke="#3f5478"/> <path d="m585 361h1l1 1q1 1 2 2 0 0 1 1h1v1q-1 1-1 2v2h-1v1h-1v1l-1 1v1h-5v-1h-1v-1h-2v-5q1 0 1-1l2-2q2-2 3-3z" fill="#62799a" stroke="#62799a"/> <path d="m584 347h2v4h1v1h1q1 0 6 3 4 3 4 4 1 1 6 5 4 4 5 6 0 1-1 1t-1 1v2t-1 1q-1 0-1-1-1-1-3-2-3-2-4-4-2-2-4-2l-3-1h-1q-1-1-1-1h2q1-1 1-2 0 0-1 0v-1h-1v-1h-1v-1h-1v-1l-2 2t0 1h-1q-1 1-3 3l-2 2h-1v1h-1v1-6l-2-2v-1q0-1 1-3t0-2l-1-1v-3h1v1h1v1h2v-2q0-3 2-3 1 1 2 0z" fill="#496380" stroke="#496380"/> <path d="m674 536h15q-1 1-7 3-6 3-20 5t-34 2h-23l-2-1h-2v-1h7l15-1q15-1 18-3 3-1 5-3 2-3 8-2t20 1z" fill="#527dc6" stroke="#527dc6"/> <path d="m0 722v-68t1 2l1 3v-1q0-1 16 0 15 0 18 2 3 0 10 0t14 2q8 2 11 5 3 2 8 11 5 8 7 13t7 9 30 18q25 12 32 20 7 7 13 13 5 7 6 7t4 4q4 4 5 5 1 0 1 1t6 6q5 4 6 8 0 2 0 3 1 1 2 1h2l2 1 1 1h-4v1h1v1h-200v-68z" fill="#172a4a" stroke="#172a4a"/> <path d="m543 365v-1h4q3 1 3 2 0 2 1 4v1l-1 2q0 3-1 3t-1 1v1q-1 0-2 2-2 2-8 0l-7-1v-1q1 0 0-1v-1q-1-1-1-2 0-2-2-2h-1l1-2q1 0 1-1h1v-2l1-1v-1l5 1q4 2 5 0 1-1 2-1z" fill="#e0eefb" stroke="#e0eefb"/> <path d="m562 290h1q1 0 1 2 0 1 3 1 3 1 3 2 1 1 0 1t0 3 3 4q1 1 2 3 0 1-3 2t-2 4q0 2 0 4v4h-1v1h-1v-7h-2q-1 0-5-8l-5-9v-1h1q1 0 1-2v-2l2-1q1-1 2-1z" fill="#5a78b5" stroke="#5a78b5"/> <path d="m487 337v1l-1 1q0 1 0 1l-4 15q-4 15-4 19 0 3-1 8v4l1 17q0 17 4 31t4 15 1 3v1l-1 1q-1 0-3 7t-10 13q-7 7-10 15-3 7-10 19-7 11-8 11v1h-1v1l-2 2v4h2l1 1h2v-1h1v-1h1v-1h1v-1l6-5q5-5 8-7 2-2 9-10t12-10 10-2 6 0 2 1l1 1h2q1 0 1-1 1-1 1-1t0 1h1l12 12q12 13 26 21 14 10 17 11 4 1 6 2l1 1h2l1 1 2 1h3t1 1l1 1h3l2 1q1 1 2 1h2l4 2h2v1h-4l-3 1h-3q-3 0-6 1l-2 1h-2v1h-1v1h1l1 5q1 5 3 10 2 6 4 21 0 15-1 18-1 4-2 4t-1 1q-1 1-2 0-1 0-1-1l-1-1v3q-2 4-2 28 0 25-4 38-4 14-7 22-3 7-4 8l-1 1v1l-1 2-1 3v1h-2v-3l1-5q1-5 5-22 4-16 5-24t-1-13q0-5-4-13t-14-16-16-9q-5-1-7 2-2 2-3 2-2 1-11-1-9 0-15 2t-11 4q-5 0-10-2t-5-3-1-1-4-4-7-6q-4-4-13-4t-14 1-13 7-13 11-9 9q-5 4-11 6-6 4-11 2h-6l-2-2h-1l-2-2h-2v-2h8q3 0 7-2 5 0 7-3 3-3 3-10t-1-9q-2-1-3-3-1-1-8-13l-8-12v-1h-1v-1h-5v1l-2 2-2 7q-4 8-6 12t-2 11 3 11 3 4h1v1h1v1h1v1h1v1h1v1h1v1h-4l-2-2h-1v-1h-1v-1h-1q-1 0-9-6-9-6-10-8 0-1-4-6-4-6-6-16-2-11-1-14 1-4 2-13t2-11q1-3 4-8 2-4 3-4t5-5q3-5 4-13t-2-12-17-10q-13-6-26-8t-30-2q-17-2-22 0-5 0-20 0h-21v-2l-1-1v-2h3v-1l1-1v-1h2q1 0 6 0 5-2 12-3t14-1 12 2q4 2 23 2t35 2 31 2 22-3 17-11q10-7 13-12t7-16 2-16q-2-4-7-8-6-4-10-4t-12-4q-8-2-16-4-8 0-16 1t-17 1q-8 0-14-2-7-4-26-4l-18-2h-2v-1h-1v-1h-1v-5h1v-1h1v-2h2l12-6q13-6 18-8t9-4 21-12 23-13 7-3h2l2-2h1v-1h1v-2h3v1h-1v1h-1v1h-1v1h-1v1h-1l-1 1q-1 1-3 3-3 3-4 3-1 1-26 15l-24 16h-2v2h-1v1h-1v4h1v1l22-1q22-1 31-2 8-2 40-11 32-8 52-13t23-8 5-5q1 0 4-6 4-5 7-5 3-1 4-3t2-1z" fill="#4777be" stroke="#4777be"/> <path d="m958 120h3v1h-1v1h-1q-1 0-3 2-2 0-1 1t-2 3q-3 3-8 6-4 3-4 4t-1 1q-1 1-12 11-10 11-16 18-4 7-12 18-8 12-17 26t-11 21q0 7-3 11t-5 10q-2 7-2 6 0 0-1 6t-7 12l-6 6v1h-1v1h-1v1h-2v-1t1 0q1-1 1-2v-2h-1v1h-1v1h-1v1q-1 0-1 0-1 1-3 2l-3 2v1h-3v-1h1v-2q0-2-2-7l-2-4v2q0 1-2 2h-2v1h-2v-5q0-6 0-6-1-1-1-2l1-2h-4l-2 1q-1 1-2 1t-7 2-13 6l-6 4v-2h-6l-2-1h-2v-1h1v-1h1v-1h3l5-4q5-2 5-3h1v-1h1v-1h1v-3h-1v-1h1v-1h1l-4-1q-4-1-7-1l-4-2h-1v-1h-1v-1h1v-1h1v-1l4-5q4-5 4-7v-1l1-2v-2h-1l-1-1h-3q-3 0-4 1l-1 1h-3v1h-1v-2h1v-1l1-1v-1h2l2-2h1v-1l7-1q7-2 9-1 1 0 3 5 1 5 2 6l1 2h6l2-2h1l3-4q4-4 6-16t6-17 4-5v-1h1v-1h1v-1h1v1l-1 1v3h1v1h1v1h1l2-2h2l2-2 11-9q10-9 10-10h1v-1h1v-1h1v-1h1v-1h1v-1h1v-1l1 1v1h-1v1h-1v3l-1 2v1q0 1-8 8t-10 11l-4 4v5h-1v1h1v1h1v1h1v-1h3l2-2 5-4q6-5 9-11t4-6 4-4q3-3 12-11t19-22 14-17 9-12 7-10q0-1 1-2l1-1v-1l1-1v-2h2q2-1 1 3 0 4 4 6t5 4q1 3 3 3z" fill="#578cd8" stroke="#578cd8"/> <path d="m761 326-2-11 1 1t1 0v1h1v2h1v1h1l5 10q5 9 5 10 1 0 1 1h1v2l1 1 1 2v2h1v1l-1 4q-2 4-1 5 1 2 1 4v1l2 2v3h-1v-1h-1v-1h-1v-1h-1v-1h-1v-1h-1v-1h-2q-1 0-3-6-1-5-4-12-3-6-4-18z" fill="#5783cf" stroke="#5783cf"/> <path d="m480 148v-5l3 3q3 3 6 8 3 4 3 4l2 4q2 5 2 32 0 28-2 32-2 5-1 14t4 10q3 2 4 3t7-3q7-2 8-3l2-1h2v-1h1v-1h3v-1h1q0-1 1-1 2 0 0 2l-3 2h-1v1h-1v1h-1v1h-1q0 1-3 2l-3 1v1h-1v1l-2 2v4h1l2 2h4q1 0 1 0h13v-1h3l3 1h1v1h-1v1h-1l-2 2h-1v1h-1v1h-1q-1 0-12 14l-11 13h-1v1h-1v1l-2 4v1l1 1v1l-4 6q-3 6-4 7v1h-1t0 1l-5 11q-5 10-5 10v-1q0-1-1 0t-4 2q-3 0-7 5-3 6-4 6-2 2-5 5t-23 8-52 13q-32 9-40 11-9 1-31 2l-22 1v-1h-1v-4h1v-1h1v-2h2l24-16q25-14 26-15 1 0 4-3 2-2 3-3l1-1h1v-1h1v-1l1-1v-1h1q1 0 1-1l7-7q7-6 32-20 24-14 34-20 10-8 19-18t13-20q4-9 9-26 5-18 5-44 0-27-1-30t-1-8zm6 189q0-1 0-1 0 1 0 1z" fill="#4d7ec6" stroke="#4d7ec6"/> <path d="m645 234 4 2h3l-2 1-1 1h-7v1h-10q-11 1-16 1h-6q-1 0-19 5l-18 5v-1q1-1 1-2t-5 1l-5 2h-4v-2h2v-3q0-2 1-2t1-1 1-1l1-1h-2v-4h-4q-4 0-10 2-7 2-13 4-6 4-10 7l-3 4-1 1v2h3l-2 2h-1l3 1 2 1h1v1h1v-1h2v2h-14t-1 0h-4l-2-2h-1v-4l2-2v-1h1v-1l3-1q3-1 3-2h1v-1h1v-1h1v-1h1l1-1h1v-1l-1-1v1h-3v1h-1v1h-2l-2 1q-1 1-8 3-6 4-7 3t-4-3q-3-1-4-10t1-14q2-4 2-32 0-27-2-32l-2-4v-2q0-3 5 0 5 4 15 14 9 10 10 11 1 0 1 1 0 2 1 2t1 1 4 3 8 1q3-1 9-6t20-8q13-3 23-2t21 5q10 4 12 7t6 17 5 20 7 8q4 3 4 4 0 0 1 0zm-118 9q0-1 0-1 1 0 1 0 0 1-1 1z" fill="#5183c7" stroke="#5183c7"/> <path d="m588 417v1h1v1h1v-1h3q3-1 3 0v3q0 2 0 5v2q-1 0-2 1 0 1 0 3 1 2 0 2-2-1-5-4-4-2-5-4 0-2-1-2t-1-1v-1h2v-1q1-1 2 0 0 1 1-1 1-3 1-3z" fill="#4b6185" stroke="#4b6185"/> <path d="m685 84h1l2-1h3v1l1 1v12q0 7-2 19 0 13 4 34t10 30q6 8 14 14t21 12q13 4 25 4 11 0 28-4 16-6 26-12 11-8 11-8h1v-1h-1v-1h3l1-1h1v1q0 1-1 2h-1v3-1h1v-1h1v-1h1v-1h1l1-1q2 0 3-1 0-1 0-2h1v-1h1l1-1h1v1q0 2-1 4l-1 1h1v-1h2v-1h1v-1l2-2q2-2 2-2h1v-1h1v-1h1v-1h1v-1h1v-1h1v-1h1v1l-1 1v1h-1v1h-1v1h-1v1h-1v1h-1v1q-1 0-5 5l-5 5v1h-1v1h-1v1h-1v1h-1v1h-1v1t-4 5-6 17-6 16l-3 4h-1l-2 2h-6l-1-2q-1-1-2-6-2-5-3-5-2-1-9 1l-7 1v1h-1l-2 2h-2v1l-1 1v1h-1v1h-1t-3 2-12 4q-9 4-13 5-5 1-30 1h-24v2l-2 1h-2q0-1-12-5t-25-5l-13-2v-1h7l1-1 2-1h-3l-4-2q-1 0-1 0 0-1-4-4-6-2-7-8t-5-20-6-17-12-7q-11-4-21-5t-23 2q-14 3-20 8t-9 6q-4 1-8-1t-4-3-2-1q-2-1-2-2-1-2-8-10t-13-13q-5-5-6-3l-2 2t-3-4q-3-5-6-8l-3-3v-1t-4-6q-2-5-6-11t-5-6-4-8l-3-8v-5h11q6 0 18 10 11 10 19 18 8 7 9 8 0 1 7 5 6 3 10 5 3 0 14 0 10 0 24-4 15-2 23-4 8 0 15-3 6-3 13-6t19-5q11-2 18-6 7-6 16-18t9-12h1v-2h1z" fill="#4877ba" stroke="#4877ba"/> <path d="m497 318h1q1 0 1 3l1 3v2h1v1l-1 8q0 8 0 17 0 10 1 10 0 0 1 1v2q1 3 4 4 2 1 2 3v2h-2l-1 1q-1 0-1 1l-1 2h-1q-1 0-5-1l-3-1-2 6q-2 7-2 7-1 1-5 1h-4v-2l-1-1v4h-2v-3q0-2-1-2v-4q1-5 1-8 0-4 4-19l4-15t1-1v-1q1 0 5-10l4-9t1-1z" fill="#b5defc" stroke="#b5defc"/> <path d="m559 372v1h1v1t1 1v1h-1q-1 0-5-3l-4-2v-1q-1-2-1-4 0-1-3-2h-3l2-2h1v-1l3-1q2 0 6 3t4 6q-2 3-1 3z" fill="#748fbf" stroke="#748fbf"/> <path d="m478 403-1-17q1 0 1 2v3h2v-4l1 1v2h4q4 0 5-1l-1 8q-1 8 1 11 1 4 4 4 3 2 4 1l1-1h1t0 1h1v1l1 1v1h1t1 1q0 1 0 1h4q3 1 3 2l1 2v4h-3l-2-1q-2-1-4-1t-4 5l-2 5h-1l1 2q0 2-1 2 0 1 0 2t-1 1v1h1v4q2 5 2 10v7l-1-1h-1v-1h-1v-1h-1v1h-1v1h-1v-1h-1v-1h-1v-1q0-1-2-3l-1-3v-1q-1-2-1-3t-4-15-4-31z" fill="#b6defd" stroke="#b6defd"/> <path d="m763 475 1-1h1v2q-1 1-3 6-4 4-12 14-8 11-20 21-12 9-22 15l-10 4-2 1-1 1h-2l-2-2h1v-1h1v-1h2l1-1h1v-1h3v-1h1v-1l13-8q13-8 26-21 12-13 16-19t5-6 1 0v-1h1z" fill="#6293e4" stroke="#6293e4"/> <path d="m571 442h1l1-1h1v9h-7t-1-1l-2-1v1h-1v-1h-3q-1 0-4-2-4-2-4-4 0-1-4-2h-4l-1-1h-1v-2l2-1q2-1 2-2v-1l1-1q1-2 5 0t8 2q4 1 5 5 2 3 3 4 2 1 2 0 1-1 1-1z" fill="#5772a1" stroke="#5772a1"/> <path d="m788 11-8-11h485v117q-1 0-1-1t-19 4l-19 4-2 1-3 1h-1v1h-2q-2 1-18 1l-15 2-1-1-2-1h2v-1l-1-1v-1h-1l-1-1h-1v-3h1v-1h1v-1l21-9q20-10 22-10t4-2 11-6q10-4 12-4h2l2-2h4v-2h-12q-2 0-18 5t-43 11-30 6-13 1l-11 1 3-1q2-1 2-2v-1h-1l-3-1q-4-1-4-1-1 0-2-1-2-2-17-6-15-3-17-6-3-3-11-6t-15-6q-6-4-7-22t-3-24q-3-5-15-5t-25-5q-12-5-38-5-27 0-48 4-20 4-26 6-5 2-16 8-11 4-31 14-20 8-28 10-8 0-11-1t-7-7-8-14q-3-9-6-11-2-3-11-14z" fill="#23406f" stroke="#23406f"/> <path d="m590 261h3v1l9 1q8 1 8 2t1 1 2 2 3 3q2 0 3 1 2 1 5 6 2 6 3 6 1 1 2 1v1h1v1l1 1 1 2v2l1-1q1-1 1-2v-1h2v3h2v2h-2q-2 0-2 1 0 2 0 4 1 2-1 2t-4 2-4 5q-3 3-3 10v7l-1-2q-1-1-1-2t-6 2q-7 2-8 5-2 3-4 3-1 0-2 2-2 2-3 5t-5 3q-4 1-4 2 0 2-1 2h-1v3h-2q-1 1-2 0-2 0-2 3v2h-2v-1h-1v-1h-1v3l-1-2q-1-2 0-2l1-1 1 1q1 0 1-1t-1-1-5-7l-3-6q-1-1-2-2l-2-1v-2q1 0 1-1 0 0 1-2 0-1 1-1 2 0 2-1t-1-1-1-1v-1h1v-1h1v-4q0-2 0-4-1-3 2-4t3-2q-1-2-2-3-2-1-3-4t0-3 0-1q0-1-3-2-3 0-3-1 0-2-1-2h-1v-2h1v-1h1v-1h1v-1h1v-1l1-1q1-1 3-2 2 0 3-1 2 0 3 2 0 2 2 2h1v-1h1v-9q2-9 5-11 3-1 5-2z" fill="#45659c" stroke="#45659c"/> <path d="m497 436-1-2h1l2 7q2 7 5 7 2 0 2 1t-1 2v1h2v1h1v3h1v-1h1v-1q0-2 1-2v1l2 4q2 3 3 4 2 1 4 9t2 9q-1 1 0 2v1q0 1 1 2l1 1v3l-2 2v1h1v1h-2v-1h-1v-1h-1v-1h-1l-1-1h-1v-1t-6-7q-6-6-9-12l-3-5v-7q0-5-2-10v-4h-1v-1q1 0 1-1t0-2q1 0 1-2z" fill="#779bef" stroke="#779bef"/> <path d="m549 383 2 1q1 1 2 6 0 4-1 4h-2v1q-1 1-3 1t-2-1q1-1-1-1l-1-1h-1q0 1 0 1v1q0 1-1 2h-1v-1t-1-2q-1-1 1-1 1 0 1-1l-1-2h1l5-1q4-1 4-3-1-2-1-3z" fill="#a2bee7" stroke="#a2bee7"/> <path d="m492 382 2-6 3 1q4 1 5 1h1l2 1q1 1 1 5 0 3-2 3h-1v2h3v2l1 1q1 2 0 4t-3 5-2 7 0 5v1h1v1h1v1l1 1v1h-2v-1l-1-1v-1h-1v-1h-1v-2h-1l-1 1q-1 1-4-1-3 0-4-4-2-3-1-11l1-8t2-7z" fill="#6f97f3" stroke="#6f97f3"/> <path d="m359 576h4v1h1v1l8 12q7 12 8 13 1 2 3 3 1 2 1 9t-3 10q-2 3-7 3-4 2-7 2h-3l-2 1h-2v-1t-1 0h-1v-1h-1v-1h-1v-1h-1v-1h-1v-1h-1v-1h-1t-3-4-3-11 2-11 6-12l2-7 2-2v-1h1zm3 34q1-4 5-3 4 0 4 1t2 2q1 2 3 6 0 4-1 8-2 4-6 3-3-1-5-2t-3-6 1-9z" fill="#5c92e3" stroke="#5c92e3"/> <path d="m971 110-1 2v1h-1v1h-2l-4 1h-4v-1l-1-1v-11q0-5 1-6 1-2 2-2t1 1 3 1q3 1 5 4t2 6-1 4z" fill="#76acf9" stroke="#76acf9"/> <path d="m505 375 1-1h2l2 1q2 1 5 1 3 1 3 2t3 1q3 1 4 0h1v1q0 1-6 1l-5 1h-1v1l-1 1-1 2v1l2 1q0 2 1 3v1h-1q-1 0-2-2 0-1-3 0l-3 1v-2h-3v-2h1q2 0 2-3 0-4-1-5l-2-1 1-2q0-1 1-1z" fill="#94b3f7" stroke="#94b3f7"/> <path d="m548 378v2q0 1 1 2v1h-1q0-1 0-1h-1t-1 1q-1 0-1 1-1 1-7 1-6 1-8-1h-1v-1q-1 0 1-1 1-1 1-2v-1l7 1q6 2 8 0 1-2 2-2z" fill="#9cbaea" stroke="#9cbaea"/> <path d="m362 610q1-4 5-3 4 0 4 1t2 2q1 2 3 6 0 4-1 8-2 4-6 3-3-1-5-2t-3-6 1-9z" fill="#96ccfd" stroke="#96ccfd"/> <path d="m632 239h10l13 2q13 1 25 5t12 5h1v1h2v1h1v1h-1v1h-1q-1-1-2-1h-1l-2-2h-1q-2 0-12-3l-10-3h-2q-1 0-4-1-2-1-16-1l-15-1h-1q-2-1-6-1h-3l-8-2h5q5 0 16-1z" fill="#8dbbf3" stroke="#8dbbf3"/> <path d="m587 359 1-1v1h1v1h1v1h1v1l4 3q3 3 4 4 0 1 3 3 2 1 3 2 0 1 1 1 1-1 1-1h2q2 0 3 6 2 6 2 10 1 4 5 4 4-1 4 0t-2 2q-1 0-1 1v1l-1 2q-1 1-1 2 2 2 0 6-2 3 0 3t2 1v4l-2-1-1-1h-1t0-1q-1-1-8 1l-7 2h-1l-2 2t-1 1h-1v-1q0-1-3 0h-3v1h-1v-1h-1v-6q0-4 1-6v-1h-1l-1-1h-3l-2 4q0 3-1 3h-1q0-1-2-2-3-1-4-1-1 2-2 1 0-1-4-1-3 0-4 1l-2 1-1-1h-1v-8h-1l-1 1-1-2v-1h3l1-1h5l2-2v-2q0-3-1-4t1-4q1-4 0-4-2 0-2-2 0-3-1-3h-2v-1q0-1 1-1l2-1h1v-1h1v-3q0-3 2-3t2-3v-2l1 2 1 1q0-1 0-2v-3h2l2 2v6-1q0-1 1-1h1v1q0 1-1 3v2h2v1h1v1h5v-1l1-1v-1h1v-1h1v-2q0-1 1-2v-1q0-1-1-1h-1q-1-1-2-2l-1-1q0-1 0-1l1-1z" fill="#465d7f" stroke="#465d7f"/> <path d="m553 291h1l-1 1q0 2 1 2h1v-1h1v-1h2v2q0 2-1 2h-1v1l5 9q4 8 5 8h2v8q0 1 1 1t1 1-2 1q-1 0-2 3 0 2-1 2v1h-1v-3h1v-1q1 0 0-2l-1-2v-1h-2q-2 0-3 0t-1 2v1h-1v1h-3v-1h1q0-1 1-2 1-2-2-2-2-1-6 0l-5 1h-3v-2q0-1 1-2 1-2 1-5t0-5q0-3-2-5l-1-2 6-4q6-3 6-4 1 0 1-1v-1h1z" fill="#6b89c7" stroke="#6b89c7"/> <path d="m616 438 1-3h1q1 0 1 1 1 2 1 4v1l1 1v6q-1 4-1 4 0-1-1-1v-1q-1 0-1-1-1-1-2 0 0 1-2-1l-1-2h-1v-2q0-2 2-3 1-1 2-3z" fill="#3e547d" stroke="#3e547d"/> <path d="m580 411h1v1l1 1-1 3q-1 2 0 3t1 2v2q0 1 1 1t1 2q1 2 5 4 3 3 5 4 1 0 0-2 0-2 0-3 1-1 2-1 0 0 1 0l1-1q1 0 1 1 0 2 1 2t2-3q0-3 1-3v2h1q1 0 1-1t5 1 5 3 2 2 1 2q-1 0-1 1v1l-1 3q-1 2-2 3-2 1-2 3v2h1l1 2q2 2 2 1 1-1 2 0 0 1 1 1h1v2h-3v2l-1 3v2l-1 1v1h-1v-3h-1t-1 0-2-3v-2h-1l-1 1h-3v1h-1v7h2q2 0 2-1t2-1q2 1 3 2 1 2 1 1h1v1l1 1v1h-1l2 2h4l1 1-1 6q-1 6-2 7-1 0-2 2 0 1-2 2-1 0-2 1 0 1-1 1-2 1-2 2t-2 0q-3 0-3 2t-1 3q-2 1-3 3t0 2-1 1l-1 1h1v2h-3v-1l-1-1-2-1-1-1q-1 0-2-1-2-1-2-2t1-1-1-3-4-8l-1-5h-1v1h-1q0 1-2 0-1-1-4-1t-4 2l-2 2t-1 1v1h-1v2h-2v-4h-1v-4q-1-3 0-6t-1-12l-2-10v-4h1v1h1v-1l2 1q1 1 1 1h7v-9h-1l-1 1h-1t-1 1q0 1-2 0-1-1-3-4-1-4-5-5-4 0-8-2t-5 0l-1 1h-1l-1 1h-2v-4h1v-1h1v-1h-1v-1h-1v-1l-1-1v-1h1v-1l1-1v-1l2-1q3-2 3-4 0-1 1 0 0 1 2 2 2 0 3 1 0 1 0-1 1-1 2 0 2 0 2 0l2-1q1-1 2-3 0-2 0-3v-1l2-1q1-1 4-1 4 0 4 1 1 1 2-1 1 0 4 1 2 1 2 2zm6 68q0-1 0-1 0 1 0 1z" fill="#33497b" stroke="#33497b"/> <path d="m1265 473v317h-278l-2-1q-1-1 1-2t1-1q-1-1 1-4 2-2 4-4 1-2 8-10 7-6 19-14t17-16 10-12q4-4 15-19t18-21 7-7 1-1 3-7q3-7 5-8 1-1 5-6 3-5 4-6 1 0 4-4 2-3 4-5t10-13q6-11 10-13 2-1 6-8t14-16q11-10 16-11 6-2 10-15 4-12 9-21t11-17q4-7 6-12 2-6 8-14 6-9 8-11 3-2 3-3t11-6q10-4 14-8 3-4 6-4 2 0 6-2t4 2q0 3 1 3z" fill="#12213b" stroke="#12213b"/> <path d="m536 300 1-1q1 0 1 1t1 1l1 2q2 2 2 5 0 2 0 5t-1 5q-1 1-1 2v2h2l-1 2q-1 1-1 2 0 2 0 4-1 2-3 3-1 1-1 3v2l-1 1v1h2q2 0 3 0h2v2h-4v5h-2q-1-1-4 0-2 1-6 2-3 1-4-1-1-1-4-1l-2-1v-2h1v-1h1v-1q0-2-1-2t-1-2 2-4q3-1 4-4l1-4h-2q-2 0-1-2l1-3v-2q1-2 4-9l4-8q1 0 1 0v-1q1 1 2 1h2v-1h1v-1h1z" fill="#5f85d9" stroke="#5f85d9"/> <path d="m1265 117v356q-1 0-1-3 0-4-4-2t-6 2q-3 0-6 4-4 4-14 8-11 5-11 6t-3 3q-2 2-8 11-6 8-8 14-2 5-6 12-6 8-11 17t-9 21q-4 13-10 15-5 1-16 11-10 9-14 16t-6 8q-4 2-10 13-8 11-10 13t-4 5q-3 4-4 4-1 1-4 6-4 5-5 6-2 1-5 8-2 7-3 7t-1 1-7 7-18 21-15 19q-5 4-10 12t-17 16-19 14q-7 8-8 10-2 2-4 4-2 3-1 4 1 0-1 1t-1 2l2 1h-444l-12-2h2v-1q-1-1 2-12t5-21l2-9 2-4v-4h1v4l1 4v1l-1 6q-1 7-1 8v2l1 2v2h5l11-3q11-3 20-5t14-6q5-5 14-19 10-15 31-29t33-18 17-6q6 0 16 0t15 4q5 2 13 2 9 0 17-4 9-4 12-6t13-2q10-2 12-3 2-2 4-7t2-7v-2l2-4v-3l1-10q1-9 2-18 1-8 5-20 6-12 14-24 9-12 14-16 4-4 9-10t25-24q21-18 30-22 8-4 16-6 8-3 9-4 2-1 4-5 3-4 3-9 1-6 4-8 3-4 12-8 8-6 16-10t12-14q4-9 15-20 11-10 19-16 9-6 10-9 2-3 8-10 5-7 6-8 1 0 2-1 0-2 1-2t1-1q1-1 3-1t2 0q0-2-1-2 0-1 0-2 2-1 2-1v-1h1v-1h1v-5l-1-1v-1h-5v-1h-6l-4 1-18 1q-18 1-30 3t-23 0-24-3q-13-2-20-8-6-5-8-6t-4-5q-3-4-3-10 0-5 3-10 2-4 4-6 3-2 5-6t2-8q2-4 10-16 9-12 14-12 4 0 9 3 5 4 10 9 5 6 11 6t23-4 24-7q6-3 20-8 13-5 21-9t40-16q31-12 33-13 3-1 3-3 0-1 2-2t3-1v-1h2v-1h1v-1h3v-3h-9l-10-1h4l2-1 1-1h1q2 0 4-1l1-1h3l2-1 1-1h-7q-8 0-14 0-7 0-6 0 0 0-15-2t-20-4-10-3h-5v-10h1v-1l1-1q2-1 1-3-1-1 14-5 14-5 27-9t33-10q21-7 36-12 16-6 17-8 0-2 15-7t17-6l1-1h3v-1h1v-1h3v-1h1v-1h-2l-5-1h-6v-1h1l3-1 2-1 19-4q19-5 19-4t1 1zm-278 494q5 1 8 6t1 9q-2 5-3 6-1 0-1 1t-2 2q-3 1-8 1t-9-3q-3-3-4-9-1-5 1-6 1 0 2-3 2-3 6-4t9 0z" fill="#2d5086" stroke="#2d5086"/> <path d="m1005 372h8v1h1v6h-1v1h-1v1q0 1-6 7t-12 11-12 11q-7 6-14 12-8 6-14 16-7 10-16 15-10 5-19 14-9 8-11 14t-16 14q-13 7-23 15t-10 9-3 3-20 19q-18 17-23 24t-11 25q-8 19-8 36t-2 24l-2 6v6l-1 1v1h-1t-1 1-6 2-7-1q-2 0-9 0t-13 2q-7 4-12 4-4 2-8 0t-4-3-5-4q-4-3-13-3t-22 4q-12 6-33 16t-31 18-22 24q-13 16-14 16t-3 2q-1 2-7 3t-10 3q-5 2-10 3l-4 1v-1h-1v-1h-1v-8q0-7 1-8 1-2 1-10l1-8h1v-1l1-3 1-2v-1l1-1q1-1 4-8 3-8 7-22 4-13 4-38 0-24 2-28v-3l1 1q0 1 1 1 1 1 1-1t1-2 1 1q1 1 2-3 1-3 1-18-2-15-4-21-2-5-3-10l-1-5h-1v-1h1v-1h2l2-1q3-1 6-1h3l3-1h4l14 2q14 1 26 3 12 0 16 0 5 0 10-2 4-2 17-7t13-5h3l1-1 2-1 10-4q10-6 22-15 12-10 20-21 8-10 12-14 2-5 3-6v-1h1v-2h1v-1h1l4-8q4-9 5-8 1 2 1 1 1-1 20-11 18-10 25-14t21-8 28-9 15-5 19-5q19-6 19-7 0-2 3-2t16-6q14-5 14-6t2-1q1 1 12-3 12-4 12-5 1-1 9-2t12-1zm-179 104h-1l-1 1-2 1h-5v-1h-1v-2l2-4v-1h1v-1h1l7-7q7-8 13-12 5-4 10-9 4-5 12-7 7-2 7-3t15-8q16-7 16-9 0-1 16-4 17-4 19-2 3 1 2 3-1 3-5 7-4 5-4 4 0-2-8 3t-8 6-6 3-19 9q-13 8-15 10-2 3-4 3-3 2-10 5-8 3-20 9-11 6-12 6z" fill="#4777ba" stroke="#4777ba"/> <path d="m826 476h-1l-1 1-2 1h-5v-1h-1v-2l2-4v-1h1v-1h1l7-7q7-8 13-12 5-4 10-9 4-5 12-7 7-2 7-3t15-8q16-7 16-9 0-1 16-4 17-4 19-2 3 1 2 3-1 3-5 7-4 5-4 4 0-2-8 3t-8 6-6 3-19 9q-13 8-15 10-2 3-4 3-3 2-10 5-8 3-20 9-11 6-12 6z" fill="#5387d2" stroke="#5387d2"/> <path d="m830 278v-2l2 4q2 5 2 7v2h-1v1h3v-1l3-2q2-1 3-2 0 0 1 0v-1h1v-1h1v-1h1v2q0 1-1 2-1 0-1 0v1h1v1q-1 1-1 8-2 6-4 9t-2 5q0 1-8 7-7 5-16 17-9 10-14 19-4 8-8 11-4 4-4 9v5h-2v1l-2-2v1h-1v-1l-1-1v-2q0-3-1-4l-1-2v-3l-2-2v-1q0-2-1-4-1-1 1-5l1-4h1v-4l1-8q1-8 4-13 3-4 11-8 7-4 9-6 3-1 5-7 4-6 7-9 3-4 5-8 2-3 3-4v-1h1v-1h2q2-1 2-2z" fill="#5c8fd8" stroke="#5c8fd8"/> <path d="m516 343h1v1h-1v2l2 1q3 0 4 1 1 2 4 1 4-1 6-2 3-1 4 0h2v4q0 4-1 5v2h3q3-1 4 1 0 1 0 1h1v-1h1v-1l1 2v2h-1l-2 2h-1v1q-1 0-2 1-1 2-5 0l-5-1v1l-1 1v2h-1q0 1-1 1l-1 2h1q2 0 2 2 0 1 1 2v2h-4v1h-1q-1 1-1 1h-1q-1 0-4-1-2 0-4-2-1-1-4-1-3 1-4 0v-4q0-2-2-3-3-1-4-4v-3t-1 0v-2l1-1v-3l3-4q3-3 4-5 1-3 3-3 2-1 2-2t1 0q0 1 1 1z" fill="#739ae2" stroke="#739ae2"/> <path d="m560 236h4v4h2l-1 1q-1 0-1 1t-1 1-1 2v3q0 2 1 2h1l6-3q6-2 6-1t-1 2q-1 0-2 1v1t-1 1l-1 1h-3v1t-13 7q-12 6-22 15t-16 16l-7 7v1h-1v1h-1v1h-1v1h-1v2h-1v-1l-1-1v-1l2-4v-1h1v-1h1l11-13q11-14 12-14h1v-1h1v-1h1l2-2h1v-1h1v-1h-1l-3-1h-2v-1t-1 0v1h-1l-1-1h-1l-2-1-3-1h1l2-2h-3v-2l1-1 3-4q4-3 10-7 6-2 13-4 6-2 10-2z" fill="#5585c9" stroke="#5585c9"/> <path d="m507 425 2 1h3v4q1 4 2 5 0 1 0 1h1v1h1v1h1v1h1v1h1v2h2v2l-1 2h-2q-2 0-4 0h-3 1v4q0 3-1 3v-1q-1 0-1 2v1h-1v1h-1v-3h-1v-1h-2v-1q-1-1-1-2t-2-1q-1 0-3-7l-2-7 2-5q2-5 4-5t4 1z" fill="#789df3" stroke="#789df3"/> <path d="m520 321h1l-1 3q-1 2 1 2h2l-1 4q-1 3-4 4-2 2-2 4t1 2 1 2v1h-2q-1 0-1-1-1-1-1 0t-2 2q-2 0-3 3-1 2-4 5l-3 4v7h-2v-5q0-5 0-10t0-13l1-8h1v-2q0-2 1-3l1-1v-1h1q1 0 1-1v-1h1q1 1 2 0t3 2q2 4 4 2 1-2 2-1 2 1 2 0z" fill="#83a9f6" stroke="#83a9f6"/> <path d="m531 376v2q1 1 0 1v1q0 1-1 2-2 1-1 1v1h1q2 2 8 1 6 0 7-1 0-1 1-1 1-1 1-1h1t0 1h1q0 1 1 3 0 2-4 3l-5 1h-1l1 2q0 1-1 1-2 0-1 1 1 2 1 2v1q0 1-4 0t-4 0 1 1-1 0h-3q-1 0-1 0t0 1q-1 1-2 1h-2t-2-1q-1-1-4-3l-2-3h-1v-1l-1-1v-1h-1v-2l-1-1v-1l1-2 1-1v-1h1l5-1q4 0 5-1 1 0 1 0v-1h1v-1h2q1-1 2-2z" fill="#d6ebfb" stroke="#d6ebfb"/> <path d="m568 253v-1h3q1 0 1 0 0 1-4 4l-6 3v4h-1v1h-1v1t-1 1h-1t0 1v2q-1 3-1 3h-1t0 1q-1 1-2 3-2 2-6 5-5 3-10 9l-4 7-1 1v2h-1q-2 0-2 1-1 1-1 1l-4 8q-3 7-4 9v2h-1q0 1-2 0-1-1-2 1-2 2-4-2-2-3-3-2t-2 0h-1v1q0 1-1 1h-1v1l-1 1q-1 1-1 3v2h-1v-1h-1v-2l-2-6-1 1h-1v-1q0-1 5-8l4-6h1v-2h1v-1h1v-1h1v-1h1v-1l7-7q6-7 16-16t22-15q13-7 13-7z" fill="#abd1fd" stroke="#abd1fd"/> <path d="m523 489 1-1q1 0 1 1h1l5 7q6 7 7 7t4 4q4 5 5 5t3 4 3 4q1 1 2 2 0 1 2 2 3 2 3 2v1h1v1h1v1h1v1h1l1 1h1v2h-1l-1-1h-1l-2-2h-2v-1h-1q0-1-8-5-8-6-13-11t-11-13l-6-8h-1v-1h-1v-2h1v1h1v1h1v1h2v-1h-1v-1l1-1z" fill="#6288e5" stroke="#6288e5"/> <path d="m584 404h3l1 1h1v1q-1 2-1 6v5t-1 3q-1 2-1 1-1-1-2 0v1h-2v-1q0-1-1-2t0-3l1-3-1-1v-1q1 0 1-3l2-4z" fill="#5e7497" stroke="#5e7497"/> <path d="m0 571v-83l2 4q2 3 5 5 3 1 24 5t23 4q2 1 4 4 3 2 7 4 4 0 35 2 30 2 54 4 25 0 33 3 7 3 19 9 11 6 13 9 3 4 1 9 0 5 0 10 0 4 3 7t12 8 12 6q3 2 12 12 9 9 27 19t38 21 28 13q7 2 11 4 4 0 12 0t14-3q7-2 19-10 13-9 17-11t9 0q5 0 11 4 5 3 9 8 4 4 8 11t6 8 7-2 11-2 13 4 19 13q10 9 11 10 0 1 1 1t7 13q5 12 7 19t2 13q0 5-1 8v3h-1v4l-2 4-2 9q-2 10-5 21t-2 12v1h-2l12 2h-343v-1h-1v-1h4l-1-1-2-1h-2q-1 0-2-1 0-1 0-3-1-4-6-8-6-5-6-6t-1-1q-1-1-5-5-3-4-4-4t-6-7q-6-6-13-13-7-8-32-20-25-14-30-18t-7-9-7-13q-5-9-8-11-3-3-11-5-7-2-14-2t-10 0q-3-2-18-2-16-1-16 0v1l-1-3q-1-2-1-2v-83z" fill="#294a7d" stroke="#294a7d"/> <path d="m766 446v-1h1v1h2l1 1-2 7q-2 8-2 11t-1 5l-1 1v1l-1 1q-1 1-1 2-1 1-1 1-1 0-5 6t-16 19q-13 13-26 21l-13 8v1h-1v1h-3v1h-1v-2l2-2v-3h-1v-1h1l1-1q1-2 3-6 1-4 2-4 2-1 4-4 3-2 14-12 12-10 22-23t16-21 6-8z" fill="#3a5b99" stroke="#3a5b99"/> <path d="m542 393h1v2q1 2 1 3t-4 3q-3 3-3 4 0 2-3 2l-3-1h-1v-1q0-1-3-3l-2-2h1q1 0 2-1 0-1 0-1t1 0h3q2 0 1 0t-1-1 4 0 4 0l1-1q1 0 0-2 0-1 1-1z" fill="#89a7dd" stroke="#89a7dd"/> <path d="m550 373 1-2 3 2q3 1 4 2h2q0 1 0 1h1l1 1h1q1 0 1-1l1 1q1 1 1 3t2 2q1 0 0 4-2 3-1 4t1 4v2l-2 2h-5l-1 1h-1v-1h-2l-4-2q-1 0-2 0l-1-1v-1h2q1 0 1-4-1-5-2-6l-2-1v-1q-1-1-1 0h-1q-1 0-1-1v-1h2v-3q0-1 1-1t1-3z" fill="#7b94bd" stroke="#7b94bd"/> <path d="m522 482v-1l2 2q3 1 4 2t2 1 1-1q0-1 4 3 3 3 7 6 4 2 4 3h1v1h5l1-1h1v-1q0-1 0-2 1 0 1-3l1-3v-3h1l1 1 2 6v2l1-2v-3h1l1-1h2v-4h1v1h1v-1h3v2h-3v1h-1v1l-1 4q-1 4 0 11t5 9q4 3 6 6 3 2 8 6t6 6q1 3 2 3t2 1q0 2 3 2 3 2 5 2h1v1h1v1h2v2h1v1h1v1h-7v1h-1v-1h-2q-2 0-8-2l-6-2h-5t-1-1h-1v-1h-2l-2-2h-3v-1h-1q0-1-1-1l-2-1v-1t-1 0q-1-1-1-1v-1h-1v-1h-1v-1h-1v-1h-1v-1t-3-2q-2-1-2-2-1-1-2-2-1 0-3-4t-3-4-5-5q-3-4-4-4t-7-7l-5-7h-1q0-1-1-1v-3l-1-1q-1-1-1-2z" fill="#4261a3" stroke="#4261a3"/> <path d="m954 193h1l-2 7q-1 6-1 12 0 5 2 8 2 4 1 8-1 3-13 10-12 6-20 13t-10 9q-2 3-6 6-4 4-4 5-1 1 0 2 1 0-2 7-2 6-6 13t-7 16-5 13-3 4-6 10q-5 9-7 14 0 5 0 11t3 8q3 1 15 3 13 0 20 2 6 2 16 0 9-2 18 0 8 2 48-6 39-8 40-9l1-1h8v-1h1v1h5v1l1 1v5h-1v1h-1v1t-2 1q0 1 0 2 1 0 1 2 0 0-2 0t-3 1q0 1-1 1t-1 2q-1 1-2 1-1 1-6 8-6 7-8 10-1 3-10 9-8 6-19 16-11 11-15 20-4 10-12 14t-16 10q-9 4-12 8-3 2-4 8 0 5-3 9-2 4-4 5-1 1-9 4-8 2-16 6-9 4-30 22-20 18-25 24t-9 10q-5 4-14 16-8 12-14 24-4 12-5 20-1 9-2 18l-1 10h-1v1h-1v5l-1 2-1 1v5h-1v1h-1v1h-1v-1l1-1v-6l2-6q2-7 2-24t8-36q6-18 11-25t23-24q17-17 20-19t3-3 10-9 23-15q14-8 16-14t11-14q9-9 19-14 9-5 16-15 6-10 14-16 7-6 14-12 6-6 12-11t12-11 6-7v-1h1v-1h1v-6h-1v-1h-8q-4 0-12 1t-9 2q0 1-12 5-11 4-12 3-2 0-2 1t-14 6q-13 6-16 6t-3 2q0 1-5 2-4 2-4 3-1 1-4 1t-14 3q-10 3-11 3t-15 5-28 9-21 8-25 14q-19 10-20 11 0 1-1-1-1-1-5 8l-4 8h-1v1h-1v2h-1v-1h-1v1h-1v1h-2v-2h2v-1l1-1v-1l1-1q1-2 1-5t2-11l2-7 2-2v-2l1-1 1-2v-2q0-1 2-4 0-3 4-22 3-20 3-27v-7h1v-1l2 2v-1h2v21l2-8v-1l2 8v-2l1-1q1-1 1 1v2l2-2q0-3 1-1t1 0 3-3q3-2 4-4t2-2q1-1 2-2 0-1 1-1t4-4q4-3 9-9t12-16q6-10 13-18 8-8 10-9 3-1 6-5 4-5 4-7t3-9q3-8 12-20t15-19 16-14q9-7 20-13t14-7q4-1 4-2t1-1-1-7-1-15 2-11 1-4zm-54 84q0-1 0-1 0 1 0 1zm-3 1t0-1q1 0 1 1 0 0-1 0z" fill="#406cae" stroke="#406cae"/> <path d="m728 277v-1l4 3q5 3 6 3 2 0 1-1 0-1 4-2t5 1q2 0 12 0t14-2q4 0 5-1h3l2 1h6v2q-1 0-5 2t-9 4q-4 1-6 7-1 6 2 7 2 2 2 7-1 6-2 6l-1 1h-1q-2 0-4 0h-2v6h-1v-1h-1v-2h-1v-1q-1 0-1 0l-1-1v-1q-1-2-3-6-2-5-12-16l-10-10v-1t-1 0v-1q-1 0-1 0-1 0-2-1-2-1-2-2z" fill="#6ea1e9" stroke="#6ea1e9"/> <path d="m606 454h2l1-1h1v2q1 3 2 3t1 0h1v3h1v2h-1q0 1-1-1-1-1-3-2-2 0-2 1t-2 1h-2v-7h1v-1h1z" fill="#3a5077" stroke="#3a5077"/> <path d="m556 272h1l-1 6q-2 6-2 7 0 0-1 1l-1 2v3h1v1h-1t0 1q-1 1-7 4l-6 4q-1 0-1-1t-1-1l-1 1h-1v1h-1v1h-5v-2h4v-2l1-1 4-7q5-6 10-9 4-3 6-6 1-3 2-3z" fill="#7093e4" stroke="#7093e4"/> <path d="m610 240h1l8 2h3q4 0 6 1h1v1q-1 0-5 4-6 5-15 8l-9 4h-3l-2 1h-4v-1q-1 0-3-1t-8 1q-6 0-7 2t-6 2h-4l-2 2h-1l-1 1h-1v-2h1l1-1h1v-1h1v-4l6-3q4-3 4-4 0 0-1 0l1-1q1-1 1-1l18-5q18-5 19-5z" fill="#8cb5f8" stroke="#8cb5f8"/> <path d="m629 244v-1l15 1q14 0 16 1 3 1 4 1h2t-8 2l-7 2 3 1q2 0 2 1v1h-2l-3 1h2l-1 1q-1 1-1 1h-1t0 1q-1 1-1 1h-3q-2 0-3 2t-1 2q-1 1-2 4-2 2-4 6-4 3-3 5t-1 1q-3 0-4 1v2h1v1h1v2q0 1 1 1v1h1v1h1v1h1v1h1v1h-2v1l-1 1v-2l-1-2-1-1v-1h-1v-1q-1 0-2-1-1 0-3-6-3-5-5-6-1-1-3-1-2-1-3-3t-2-2-1-1-8-2l-9-1v-1h2l2-1h3l9-4q9-3 15-8 4-4 5-4z" fill="#496baa" stroke="#496baa"/> <path d="m922 113 2-1h2v1h-1v1h-1v2l-2 2v1l-1 1q-1 1-1 2-1 2-2 2t-1 1q-1 1-8 11t-11 14q-4 3-12 12t-11 11l-2 2v-1h-2v1h-1v1h-1v1h-1q0 1-10 10l-11 9-2 2h-2l-2 2h-1v-1h-1v-1h-1v-3l1-1v-2h1v-1h1v-1l5-5q4-5 5-5v-1h1v-1h1v-1h1v-1h1v-1h1v-1l1-1v-1l25-24q26-24 30-28t5-4l2-2h1l2-1zm-48 59v-1 1z" fill="#568bdb" stroke="#568bdb"/> <path d="m512 390h1t1 1q0 1 0 1h1v1h1l2 3q3 2 4 3 2 1 2 1h1l2 2q3 2 3 3v1q0 1-1 1v-1q-1 0-1 0l-2-1q-1-1 0 9 0 9 2 8 0-1 2 1 0 2 1 3v2q-1 1-1 2v1q0 1-1 1l-1 1v1h-2q-3 0-4 2v1h-1v-1h-1v4h-2v-1h-1v-1h-1v-1h-1v-1h-1t0-1q-1-1-2-5v-8l-1-2q0-1-3-2h-3q-1-1-1-1v-2h-1v-1h-1t0-1h-1q0-1 1-1t1-4q-1-4 1-7t3-5 0-4l-1-1 3-1q3 0 3 0z" fill="#5b80da" stroke="#5b80da"/> <path d="m335 6-1-6h446l8 11q9 11 11 14 3 2 6 11 4 8 8 14t7 7 11 1q8-2 28-10 20-10 31-14 11-6 16-8 6-2 26-6 21-4 48-4 26 0 38 5 13 5 25 5t15 5q2 6 3 24t7 22q7 3 15 6t11 6q2 3 17 6 15 4 17 6 1 1 2 1 0 0 4 1l3 1h1v1q0 1-2 2l-3 1 11-1q10-1 13-1t30-6 43-11 18-5h12v2h-4l-2 2h-2q-2 0-12 4-9 4-11 6t-4 2-22 10l-21 9v1h-1v1h-1v3h1l1 1h1v1l1 1v1h-2l2 1 1 1 15-2q16 0 18-1h8l5 1h2v1h-1v1h-3v1h-1v1h-3l-1 1q-2 1-17 6t-15 7q-1 2-17 8-15 5-36 12-20 6-33 10t-27 9q-15 4-14 5 1 2-1 3l-1 1v1h-1v10h5q5 1 10 3t20 4 15 2q-1 0 6 0 6 0 14 0h7l-1 1-2 1h-3l-1 1q-2 1-4 1h-1l-1 1-2 1h-4l10 1h9v3h-3v1h-1v1h-2v1q-1 0-3 1t-2 2q0 2-3 3-2 1-33 13-32 12-40 16t-21 9q-14 5-20 8-7 3-24 7t-23 4-11-6q-5-5-10-9-5-3-9-3-5 0-14 12-8 12-10 16 0 4-2 8t-5 6q-2 2-4 6-3 5-3 10 0 6 3 10 2 4 4 5t8 6q7 6 20 8 13 1 24 3t23 0 30-3l18-1 4-1h5v1h-8l-1 1q-1 1-40 9-40 8-48 6-9-2-18 0-10 2-16 0-7-2-20-2-12-2-15-3-3-2-3-8t0-11q2-5 7-14 5-10 6-10t3-4 5-13 9-21q6-11 4-10-3 0-3-1v-1h2l5-6q4-6 5-7 1 0 7-6 5-7 10-10 4-3 17-10t12-11q-1-5-2-8-1-4-2-8v-5q1 0 1-2v-2t1-1v-2q1 0 1-2v-1t1-1v-1q0-1 6-14 7-13 17-36t17-26q8-3 9-6 0-3-2-13-2-11-6-17-5-6-11-9-6-4-16-4t-13 0q-3 2-14 8-10 6-22 17-11 11-41 44-31 33-38 39l-7 7q-1 1-1 1h-4v1h1v1h-1t-11 8q-10 6-26 12-17 4-28 4-12 0-25-4-13-6-21-12t-14-14q-6-9-10-30t-4-34q2-12 2-19v-12l-1-1v-1h-3l-2 1h-2v2h-1t-9 12-16 18q-7 4-18 6-12 2-19 5t-13 6q-7 3-15 3-8 2-23 4-14 4-24 4-11 0-14 0-4-2-10-5-7-4-7-5-1-1-9-8-8-8-19-18-12-10-18-10h-11v5l3 8q3 8 4 8t5 6 6 11q4 6 4 6v6q0 5 1 8t1 30q0 26-5 44-5 17-9 26-4 10-13 20t-19 18q-10 6-34 20-25 14-32 20l-7 7h-1q-1 1-1 1h-1t0 1h-1v1h-1l-2 2h-2q-1 0-7 3t-23 13-21 12-9 4-18 8l-12 6h-2v2h-1v1h-1v5h1v1h1v1h2l18 2q19 0 26 4 6 2 14 2 9 0 17-1t16-1q8 2 16 4 8 4 12 4t10 4q5 4 7 8 2 5-2 16t-7 16-13 12q-10 8-17 11t-22 3-31-2-35-2-23-2q-5-2-12-2t-14 1-12 3q-5 0-6 0h-2v1l-1 1v1h-3v2l1 1v2h21q15 0 20 0 5-2 22 0 17 0 30 2t26 8q14 6 17 10t2 12-4 13q-4 5-5 5t-3 4q-3 5-4 8-1 2-2 11t-2 13q-1 3 1 14 2 10 6 16 4 5 4 6 1 2 10 8 8 6 9 6h1v1h1v1h1l2 2h5t1 1v1t1 0l2 2h1l2 2h6q5 2 11-2 6-2 11-6 4-4 9-9t13-11 13-7 14-1 13 4q4 2 7 6t4 4 1 1 5 3 10 2q5-2 11-4t15-2q9 2 11 1 1 0 3-2 2-3 7-2 6 1 16 9t14 16 4 13q2 5 1 13t-5 24q-4 17-5 22l-1 5v3h1l-1 8q0 8-1 10-1 1-1 8v8h1v1h1v1l4-1q5-1 10-3 4-2 10-3t7-3q2-2 3-2t14-16q12-16 22-24t31-18 33-16q13-4 22-4t13 3q5 3 5 4t4 3 8 0q5 0 12-4 6-2 13-2t9 0q2 2 7 1t6-2 1-1h2v-1h1v-1h1v-5l1-1 1-2v-5h1v-1h1v3l-2 4v2q0 2-2 7t-4 7q-2 1-12 3-10 0-13 2t-12 6q-8 4-17 4-8 0-13-2-5-4-15-4t-16 0q-5 2-17 6t-33 18-31 29q-9 14-14 19-5 4-14 6t-20 5l-11 3h-5v-2l-1-2v-2q0-1 1-8l1-6v-1l-1-4v-7q1-3 1-8 0-6-2-13t-7-19q-6-13-7-13t-1-1q-1-1-11-10-12-10-19-13t-13-4-11 2-7 2-6-8-8-11q-4-5-9-8-6-4-11-4-5-2-9 0t-17 11q-12 8-19 10-6 3-14 3t-12 0q-4-2-11-4-8-2-28-13t-38-21-27-19q-9-10-12-12-3-1-12-6t-12-8-3-7q0-5 0-10 2-5-1-9-2-3-13-9-12-6-19-9-8-3-33-3-24-2-54-4-31-2-35-2-4-2-7-4-2-3-4-4-2 0-23-4t-24-5q-3-2-5-5l-2-4v-117h1l1 1h1l1-1q1-1 9-2t32-12 36-17 15-10q3-3 4-3 1-1 2-2 0-1 1-1t2-3 2-3 3-3 3-12 5-13 6-12 2-18q-2-9 0-17t4-9 3-3q1-1 3-6 2-4 4-7 2-4 8-6 6-4 9-6 3-3 14-11 11-9 16-13t10-11 6-7 7-10 14-19q7-9 20-17 12-8 25-14t23-10q11-4 22-10 12-6 17-10t9-12q6-9 6-17t0-12q-2-4-6-13t-5-14zm567 267q1 0 1 1t-1 1-1-1 1-1z" fill="#345a95" stroke="#345a95"/> <path d="m591 260v1h-1q-2 1-5 2-3 2-5 11v9h-1v1h-1q-2 0-2-2-1-2-3-2-1 1-3 1-2 1-3 2l-1 1v1h-1v1h-1v1h-1v1h-1v2q-1 0-2 1l-2 1h-2v1h-1v1h-2v-2h1v-1h-2v-3l1-2q1-1 1-4 2-3 2-6v-3t1-1 1-3v-2t1-1h2l2-2h4q5 0 6-2t7-2q6-2 8-1t3 1z" fill="#698bda" stroke="#698bda"/> <path d="m788 234h3l1 1h1v2l-1 2v1q0 2-4 7l-4 5v1h-1v1h-1v1h1v1h1l4 2q3 0 7 1l4 1h-1v1h-1v1h1v3h-1v1h-1v1h-1q0 1-5 3l-5 4h-3v1h-1v1h-1v1h-1q-1 1-5 1-4 2-14 2t-12 0q-1-2-5-1t-4 2-5-1l-5-3v-1q-1 0-1 0-1 0-6-4-4-4-15-10l-11-6v-1h-1v-1h1v-1h-1v-1h-2v-1h1l2-1v-2h24q25 0 30-1 4-1 13-5 9-2 12-4t3-2h1v1h1v-1h3l1-1q1-1 4-1z" fill="#5f91d8" stroke="#5f91d8"/> <path d="m666 246 10 3q10 3 12 3h1l2 2h1q1 0 2 1h2v1l11 6q11 6 15 10 5 4 6 4 0 0 0 1h1l1 1q1 2 2 2v1h1v1h-1v1h1v1h1v2l1 1v1h-2v-1h-1v-2h-1v-1h-1q-2 0-3-1l-1-1h-1v1h-1v-1h-4v2q0 1 0 1h-2q-1-1-2-1-1-2-14-10-14-8-23-12t-18-4l-9-2v1h-1v1h-2v-1l1-1 2-1 1-1h-2l3-1h2v-1q0-1-2-1l-3-1 7-2q8-2 8-2z" fill="#3d5e9c" stroke="#3d5e9c"/> <path d="m987 611q5 1 8 6t1 9q-2 5-3 6-1 0-1 1t-2 2q-3 1-8 1t-9-3q-3-3-4-9-1-5 1-6 1 0 2-3 2-3 6-4t9 0z" fill="#3d69ad" stroke="#3d69ad"/> <path d="m562 322h2v1l1 1q1 1 1 2v2q-1 0-1 1-1 0-1 1v1h1l2 1q1 1 2 2h-1t0 1h-2q-1-1-2-1-2-1-2 0t-2 0l-2-1v-1q0-1-1-2 0-1-2-2-3 0-2-2l1-1v1h1q1 0 1-1 0 0 1-1l1-1q2-1 4-1z" fill="#93b0dd" stroke="#93b0dd"/> <path d="m651 256 11 2q12 2 21 6t21 12 13 8 1 1h2v1t1 0v1h1v1l8 9q8 9 10 13 2 3 2 10 0 6-18 26-20 19-20 26-2 6 1 11t9 9q5 6 7 7 3 1 6 5t17 4q15 2 16 2t2-1q0-1 1 2 1 2 2 15l1 14v4q-1 0-6 6-4 6-5 6t-9 9-9 10-4 3-9 4q-7 4-14 3t-9-4-3-3-3-5q-3-5-6-9-4-4-12-2t-22 4q-14 0-15 2 0 1-2 2-2 0-3-2-1-3-2-3t-1 2-4 3q-3 0-3-1-1-1-2-1-1-1-1 0v1l-1-1h-4l-2-2h1v-1l-1-1v-4l1-1v-2l1-3q1-2 1-2l1-1q0 1 1 1 0 0 1-4v-5h1v-4h1v-1h3q4-1 4 0t1-4q0-4 2-4 1-1 2-4 0-2 2-2 1-1 3-3 1-3 4-2 2 1 2-1v-3h-1q0-1 0-1h1v-1l1-3v-2h-2v2q0 1-2 2-2 0-2-2-1-2-2-2-2 0-3-2t-4-4q-2-4-4-2t-3 2l-1 1-1-1q0-2-1-3l-2-1v-1q0-1 0-2t-2-1q-3 0-4-4 0-4-2-10-1-6-3-6h-2v-2q0-1 1-1t1-1q-1-2-5-6-5-4-6-5 0-1-4-4-5-3-6-3h-1v-1h-1v-7h1q1 0 1-2 0-1 4-2 4 0 5-3t3-5q1-2 2-2 2 0 4-3 1-3 8-5 6-3 6-2t1 2l1 2v-7q0-7 3-10 2-3 4-5t4-2 1-2q0-2 0-4 0-1 2-1h2v-2h-2v-1q0-1-1-1v-1q-1 0-1 0h-1v-1h-1v-1h-1v-1q-1 0-1-1v-2h-1v-1h-1v-2q1-1 4-1 2 1 1-1t3-5q2-4 4-6 1-3 2-4 0 0 1-2t3-2h3q1 0 1 0v-1t1-1zm-31 208v-1h1v1h1l-1 1q-1 0-1-1z" fill="#253b61" stroke="#253b61"/> <path d="m536 423v-1l1 1v1h4v1l1 1v1h1v1h1v1h-1v1h-1v4h2l1-1h1v1q0 1-2 2l-2 1v2h1l1 1h4q4 1 4 2 0 2 4 4 3 2 4 2h2v4l2 10q2 9 1 12t0 6v8h-2l-1 1h-1v3l-1 2v-2l-2-6-1-1h-1v3l-1 3q0 3-1 3 0 1 0 2v1h-1l-1 1h-5v-1h-1q0-1-2-1-2-2-6-6t-6-4q-3 0-4-1t-4-2l-2-2q-1-1 0-2 0-1-2-9t-4-9q-1-1-3-4l-2-4q1 0 1-3v-4h-1 3q2 0 4 0h2l1-2v-2h-2v-2h1v-4h1v1h1v-1q1-2 4-2h2v-1l1-1q1 0 1-1v-1q0-1 1-2v-2h1q1 0 1-1t1-1q2 0 2-1z" fill="#3f58a2" stroke="#3f58a2"/> <path d="m526 405 2 1t0 1h1l3 3q3 4 4 4 2 0 1 3t-1 4v2q0 1-2 1-1 0-1 1t-1 1h-1q-1-1-1-3-2-2-2-1-2 1-2-8-1-10 0-9z" fill="#7898d7" stroke="#7898d7"/> <path d="m619 400 1-2 2 1q1 1 1 3l1 1 1-1q1 0 3-2t4 2q3 2 4 4t3 2q1 0 2 2 0 2 2 2 2-1 2-2v-2h2v2l-1 3v1h-1t0 1h1v3q0 2-2 1-3-1-4 2-2 2-3 3-2 0-3 3 0 3-2 7-2 5-2 4t-4 0h-3v1h-1v4h-1v-1l-1-1v-1q0-2-1-4 0-1-1-1h-1v-1q0-1 1-1 1-1-1-2t-2-2-5-3-5-1-1 1h-1v-4l1-3v-2h-1l-1 1h-4l2-2h1l7-2q7-2 8-1 0 1 0 1h1l1 1 2 1v-4q0-1-2-1t0-3q2-4 0-6 0-1 1-2z" fill="#2f456a" stroke="#2f456a"/> <path d="m955 193q-1 0-1 1v1t-1 1v2q-1 0-1 2v1t-1 2v2q-1 0-1 5 0 6 2 13t1 7-1 1-4 2q-3 1-14 7t-20 13q-10 7-16 14t-15 19-12 20q-3 7-3 9t-4 7q-3 4-6 5-2 1-10 9-7 8-13 18-7 10-12 16t-9 9q-3 4-4 4t-1 1q-1 1-2 2-1 0-2 2t-4 4q-3 1-3 3t-1 0-1 1l-2 2v-2q0-2-1-1l-1 1v2l-2-8v1l-2 8v-26q0-5 4-9 4-3 8-11 5-9 14-19 9-12 16-17 8-6 8-7 0-2 2-5t4-9q0-7 1-8v-1h1v-1h1v-1h1v-1l6-6q6-6 7-12t1-6q0 1 2-6 2-6 5-10t3-11q2-7 11-21t17-26q8-11 12-18 6-7 16-18 11-10 12-11 1 0 1-1t4-4q5-3 8-6 3-2 2-3t1-1q2-2 3-2h1v-1h1v-1h-3q-2 0-3-3-1-2-5-4t-4-5v-3h-1v-1h-2v2l-1 1v1l-1 1q-1 1-1 2-2 1-7 10t-9 12-14 17-19 22-12 11q-3 4-4 4t-4 6-9 11l-5 4-2 2h-3v1h-1v-1h-1v-1h-1v-1h1v-5l4-4q2-4 10-11t8-8v-1l1-2v-2q1 0 1-1 0 0 1 0v-1l9-9q10-9 10-10t4-4q4-4 11-14t8-11q0-1 1-1t2-2q0-1 1-2l1-1v-1l2-2v-2h1v-1h1v-1h-2l-4 2h-1l-2 2q-1 0-5 4t-30 28l-25 24h-1v1h-1v1h-1v1h-1v1h-1v1h-1v1h-1t-2 2l-2 2v1h-1v1h-2v1h-1q0-1-3 0h-4v1h-1v1h-1v1h-1v1h-1v1h-2v-2h2v-1h1v-1l1-1v-1h1v-1l7-7q7-6 38-39 30-33 41-44 12-11 22-17 11-6 14-8 3 0 13 0t16 4q6 3 11 9 4 6 6 17 2 10 2 13-1 3-9 6-7 3-17 26t-17 36q-6 13-6 14zm16-83-1 2v1h-1v1h-2l-4 1h-4v-1l-1-1v-11q0-5 1-6 1-2 2-2t1 1 3 1q3 1 5 4t2 6-1 4zm-128 69h1v1q0 2-2 2-1 0-1-1l2-2z" fill="#4676bf" stroke="#4676bf"/> <path d="m557 322v2h-1t0 1h-2l-1 1q-1 2 2 2 2 1 2 2 1 1 1 2v1l2 1q2 1 2 0t2 0q1 0 2 1h1q0 1 0 2 1 1-2 1h-3v4q0 2 2 4 2 1 2 5 0 3 2 5t2 3l2 2v3q0 3-2 3t-2 3v3h-1v1h-1l-2 2h-1v1h-1l-2-2v-2h-1v-1q-1 0 1-3 0-3-4-6t-6-3l-3 1v-1l-1-2v1h-1v1h-1t0-1q-1-2-4-1h-3v-2q1-1 1-5v-9h4v-2h-2q-1 0-3 0h-2v-1l1-1v-2q0-2 1-3 2-1 3-3 0-2 0-4 0-1 1-2l1-2h1l5-1q4-1 6 0 3 0 3 1z" fill="#5071b2" stroke="#5071b2"/> <path d="m732 282v-2h1q1 0 1 1v1l10 10q10 11 12 16 2 4 3 6v1l2 11q1 12 4 18 3 7 4 12 2 6 3 6h2v1h1v1h1v1h1v1h1v1h1v1h1l1 2q1 1 1 4v2l1 1v8q0 7-3 27-4 19-4 22-2 3-2 4v2l-1 2-1 1v2l-2 2-1-1h-2v-1h-1v-5l-1-14q-1-13-2-15-1-3-1-2-1 1-2 1t-16-2q-14 0-17-4t-6-5q-2-1-7-7-6-4-9-9t-1-11q0-7 20-26 18-20 18-26 0-7-2-10-2-4-10-13l-8-9v-1h-1v-1h-2v-2h1v-2h4v1h1v-1h3q2 0 2 1t1 1h1q2 0 2 0h-1v-1h-1v-1zm2 6t0-1 0 1z" fill="#325287" stroke="#325287"/> <path d="m543 394v-1l1 1q2 0 1 1 0 1 2 1t3-1l1 1q1 0 2 0l4 2h2v1h-2v1l1 2 1-1h1v8h1l1 1v1q0 1 0 3-1 2-2 3l-2 1t-2 1-2 0q-1-1-3-1-2-1-2-2-1-1-1 0 0 2-3 4l-2 1v1l-1 1v1h-5v-1l-1-1v-1q0-1 0-3t-2-6q-3-4-4-4h-2v-2h5q3-1 7-4t3-5q-1-3-1-3t1 0z" fill="#5e78b4" stroke="#5e78b4"/> </g> </svg>